<svg width="378" height="378" viewBox="0 0 378 378" fill="none" xmlns="http://www.w3.org/2000/svg">
<circle cx="189" cy="189" r="181" fill="#0F0F0F" stroke="url(#paint0_linear_178_3318)" stroke-width="16"/>
<path d="M133.553 208.857L134.553 56.0111C134.553 54 134.862 54 132.362 54H114.006C112.006 54 112.006 54 112.006 56.0111L111.006 229.547C111.006 232.06 110.744 232.289 113.744 232.289H162.004C164.004 232.289 164.004 233.021 164.004 235.032V322.989C164.004 325 164.004 325 166.004 325H183.289C184.932 325 184.932 325 184.932 322.989V234.301C184.932 232.289 185.123 232.289 187.123 232.289H241.502C245.502 232.289 245.716 226.94 245.716 222.415C245.716 217.89 245.502 211.371 241.502 211.371H188.218C186.218 211.371 184.932 211.371 184.932 209.36V171.148C184.932 169.137 186.218 169.137 188.218 169.137H313.5C318 169.137 318 161.704 318 157.682C318 152.654 318 147.808 313.5 147.808H166.004C164.004 147.808 164.004 147.991 164.004 150.002V209.36C164.004 211.371 164.004 211.371 162.004 211.371H135.648C133.648 211.371 133.553 211.371 133.553 208.857Z" fill="url(#paint1_linear_178_3318)"/>
<defs>
<linearGradient id="paint0_linear_178_3318" x1="73.5" y1="47.6609" x2="418.92" y2="222.297" gradientUnits="userSpaceOnUse">
<stop stop-color="#01A66B"/>
<stop offset="0.5" stop-color="#056945"/>
<stop offset="1" stop-color="#01A66B"/>
</linearGradient>
<linearGradient id="paint1_linear_178_3318" x1="131.505" y1="53.4972" x2="289.477" y2="229.601" gradientUnits="userSpaceOnUse">
<stop stop-color="#056945"/>
<stop offset="0.186246" stop-color="#01A66B"/>
<stop offset="0.619464" stop-color="#01A66B"/>
<stop offset="1" stop-color="#056945"/>
</linearGradient>
</defs>
</svg>
