<svg width="278" height="274" viewBox="0 0 278 274" fill="none" xmlns="http://www.w3.org/2000/svg">
<g id="logo">
<path id="Ellipse 5" d="M275.5 137C275.5 211.248 214.421 271.5 139 271.5C63.5788 271.5 2.5 211.248 2.5 137C2.5 62.7517 63.5788 2.5 139 2.5C214.421 2.5 275.5 62.7517 275.5 137Z" fill="#0F0F0F" stroke="url(#paint0_linear_82_1052)" stroke-width="5"/>
<g id="Vector 1" filter="url(#filter0_d_82_1052)">
<path d="M94.9011 149.005L95.6067 43.0773C95.6067 41.665 95.6067 41.665 93.8427 41.665H88.9036C87.4924 41.665 87.4924 41.665 87.4924 43.0773L86.7869 156.773C86.7868 158.539 86.7869 158.539 88.9036 158.539H121.36C122.772 158.539 122.772 158.539 122.772 159.598V230.57C122.772 231.982 122.772 231.982 124.183 231.982L129.122 231.982C130.533 231.982 130.533 231.982 130.533 230.57V159.598C130.533 158.539 130.533 158.539 131.944 158.539H178.866C181.688 158.539 181.688 158.539 181.688 155.008C181.688 150.771 181.688 150.771 178.866 150.771H131.944C130.533 150.771 130.533 150.771 130.533 149.711V124.995C130.533 123.936 130.533 123.936 131.944 123.936H229.668C232.843 123.936 232.843 123.936 232.843 119.698C232.843 116.168 232.843 116.168 229.668 116.168H124.888C122.772 116.168 122.772 116.168 122.772 117.933V149.711C122.772 150.771 122.772 150.771 121.36 150.771H96.665C94.9011 150.771 94.901 150.771 94.9011 149.005Z" fill="url(#paint1_linear_82_1052)"/>
</g>
</g>
<defs>
<filter id="filter0_d_82_1052" x="81.7869" y="36.665" width="156.056" height="200.317" filterUnits="userSpaceOnUse" color-interpolation-filters="sRGB">
<feFlood flood-opacity="0" result="BackgroundImageFix"/>
<feColorMatrix in="SourceAlpha" type="matrix" values="0 0 0 0 0 0 0 0 0 0 0 0 0 0 0 0 0 0 127 0" result="hardAlpha"/>
<feMorphology radius="1" operator="dilate" in="SourceAlpha" result="effect1_dropShadow_82_1052"/>
<feOffset/>
<feGaussianBlur stdDeviation="2"/>
<feColorMatrix type="matrix" values="0 0 0 0 0.00392157 0 0 0 0 0.65098 0 0 0 0 0.419608 0 0 0 0.6 0"/>
<feBlend mode="normal" in2="BackgroundImageFix" result="effect1_dropShadow_82_1052"/>
<feBlend mode="normal" in="SourceGraphic" in2="effect1_dropShadow_82_1052" result="shape"/>
</filter>
<linearGradient id="paint0_linear_82_1052" x1="54.0556" y1="34.5478" x2="306.583" y2="164.084" gradientUnits="userSpaceOnUse">
<stop stop-color="#01A66B"/>
<stop offset="0.5" stop-color="#056945"/>
<stop offset="1" stop-color="#01A66B"/>
</linearGradient>
<linearGradient id="paint1_linear_82_1052" x1="101.251" y1="41.3119" x2="212.133" y2="165.507" gradientUnits="userSpaceOnUse">
<stop stop-color="#056945"/>
<stop offset="0.186246" stop-color="#01A66B"/>
<stop offset="0.619464" stop-color="#01A66B"/>
<stop offset="1" stop-color="#056945"/>
</linearGradient>
</defs>
</svg>
