<svg width="106" height="121" viewBox="0 0 106 121" fill="none" xmlns="http://www.w3.org/2000/svg">
<g id="css-logo">
<path id="Subtract" fill-rule="evenodd" clip-rule="evenodd" d="M0 0.614838H106L96.1255 108.411L53.6046 120.455C53.5676 120.464 53.5324 120.473 53.4986 120.482C52.7954 120.658 52.7466 120.67 51.9924 120.455C51.7882 120.397 51.0477 120.179 49.8882 119.838C43.0381 117.821 21.5651 111.501 9.673 108.411L0 0.614838ZM19.7491 23.0974H86.654L86.8556 35.9446L56.8289 48.3903H84.2358L81.0114 89.3408L54.8137 97.571C54.2092 97.7718 53 97.7718 52.3955 97.571L50.7833 97.1695L26.1978 90.1437L24.3841 69.0663H37.4829L38.6921 79.1032L51.1863 82.1142L52.597 82.315L54.0076 82.1142L68.3156 79.1032L69.9278 62.2412H23.578L21.9658 49.394L52.597 35.9446H21.1597L19.7491 23.0974Z" fill="url(#paint0_linear_21_516)"/>
<path id="Subtract_2" fill-rule="evenodd" clip-rule="evenodd" d="M53.6045 97.7217V110.218L89.8783 99.9799L97.3345 10.6518H53.6045V23.0975H86.654L86.8555 35.9447L56.8289 48.3905H84.2357L81.0114 89.3409L54.8137 97.5711C54.5114 97.6715 54.0579 97.7217 53.6045 97.7217ZM53.6045 82.1717L54.0076 82.1143L68.3156 79.1033L69.9277 62.2413H53.6045V82.1717Z" fill="url(#paint1_linear_21_516)"/>
</g>
<defs>
<linearGradient id="paint0_linear_21_516" x1="53" y1="0.614838" x2="10.5647" y2="108.524" gradientUnits="userSpaceOnUse">
<stop stop-color="#056945"/>
<stop offset="1" stop-color="#01A66B"/>
</linearGradient>
<linearGradient id="paint1_linear_21_516" x1="53.6045" y1="60.4346" x2="92.8997" y2="57.8047" gradientUnits="userSpaceOnUse">
<stop stop-color="#01A66B"/>
<stop offset="1" stop-color="#056945"/>
</linearGradient>
</defs>
</svg>
