<svg width="106" height="121" viewBox="0 0 106 121" fill="none" xmlns="http://www.w3.org/2000/svg">
<g id="html-logo">
<path id="Subtract" fill-rule="evenodd" clip-rule="evenodd" d="M0 0.262756H106L96.1255 108.059L53.6046 120.103C53.5676 120.112 53.5324 120.121 53.4986 120.129C52.7954 120.305 52.7466 120.318 51.9924 120.103C51.7882 120.045 51.0477 119.827 49.8882 119.486C43.0381 117.469 21.5651 111.149 9.673 108.059L0 0.262756ZM19.5475 22.1431H86.0494L85.2433 35.5925H34.057L35.2661 48.8412L83.8327 49.0419L80.4068 89.9923L54.2091 97.4196C52.7985 97.8211 52.5969 97.8211 51.3878 97.4196C50.3063 97.0605 33.5868 92.2005 25.3916 89.9923L23.1749 68.3127H37.2813L38.0874 79.7547L51.1863 83.1673C52.7985 83.5688 53 83.5688 54.4106 83.1673L67.5095 79.7547L68.9201 62.6921H22.7718L19.5475 22.1431Z" fill="url(#paint0_linear_21_518)"/>
<path id="Subtract_2" fill-rule="evenodd" clip-rule="evenodd" d="M52.7983 8.69373H96.1253L88.266 101.033L52.7983 110.869V97.7194C53.1554 97.707 53.5504 97.6071 54.209 97.4196L80.4067 89.9923L83.8325 49.0419L52.7983 48.9136V35.5925H85.2432L86.0493 22.1431H52.7983V8.69373ZM52.7983 62.6921V83.4673C53.256 83.4798 53.6639 83.3798 54.4105 83.1673L67.5093 79.7547L68.92 62.6921H52.7983Z" fill="url(#paint1_linear_21_518)"/>
</g>
<defs>
<linearGradient id="paint0_linear_21_518" x1="55.0152" y1="2.06939" x2="10.7739" y2="108.583" gradientUnits="userSpaceOnUse">
<stop stop-color="#056945"/>
<stop offset="1" stop-color="#01A66B"/>
</linearGradient>
<linearGradient id="paint1_linear_21_518" x1="92.2964" y1="50.2464" x2="52.7993" y2="48.021" gradientUnits="userSpaceOnUse">
<stop stop-color="#056945"/>
<stop offset="1" stop-color="#01A66B"/>
</linearGradient>
</defs>
</svg>
