<svg width="161" height="120" viewBox="0 0 161 120" fill="none" xmlns="http://www.w3.org/2000/svg">
<g id="sass-logo">
<path id="Subtract" fill-rule="evenodd" clip-rule="evenodd" d="M37.65 47.1615C36.483 45.7121 38.4257 43.8762 39.6961 45.1347C41.4499 46.872 45.2501 50.0571 53.434 50.0571C62.788 50.0571 86.3453 43.6872 92.3102 23.7081C93.7939 18.7384 90.5564 9.9204 73.3103 10.3885C66.0033 10.5868 47.4126 14.3264 31.5116 25.4452C25.3738 29.737 13.0968 39.6335 12.8045 49.7675L12.8002 49.9111C12.708 52.9515 12.4919 60.0809 28.5886 71.1944C30.8883 72.7821 34.4542 75.7368 37.4164 79.4846L52.8494 70.6153L52.8516 70.6129L52.8517 70.6128C55.7758 67.4272 61.6204 61.06 67.7567 61.06C70.0955 61.06 74.4799 61.929 73.0181 70.6153L73.2159 70.5795C76.3636 70.0105 79.413 69.4593 77.6948 75.2481C76.2337 80.1707 73.8954 90.0155 74.1873 91.1735C74.3644 91.8763 75.0646 92.0424 75.6487 91.1735L89.9714 60.1914L90.2637 56.717C90.2637 55.8484 90.8487 54.9797 92.3102 54.9797H98.7407C99.6176 54.9797 100.786 55.6912 100.786 57.2961C100.786 57.9834 100.466 58.8973 100.079 60.0019C99.4878 61.6895 98.7405 63.8222 98.7407 66.2722L98.7407 66.3883C98.7393 67.9044 98.7361 71.3818 100.786 74.0899C101.225 74.6692 101.664 74.6692 101.956 74.0899L110.433 58.1648L111.31 55.2693L111.894 52.3735C111.924 52.3138 111.953 52.2564 111.98 52.2012L111.981 52.1996C112.486 51.1861 112.616 50.9257 115.109 50.9257H120.078C121.832 50.926 122.075 51.2155 121.832 52.663C121.707 53.403 121.536 54.347 121.354 55.3476C120.895 57.8714 120.371 60.756 120.371 61.6394C120.371 61.8032 120.363 61.9819 120.355 62.1775C120.291 63.7103 120.183 66.2829 123.293 70.9048C123.326 70.9536 123.363 71.0115 123.403 71.0752C123.721 71.5793 124.269 72.4483 125.047 72.063C126.801 71.1946 132.063 69.1675 137.908 69.1675C142.293 69.1675 151.244 69.7469 156.616 75.8275C156.716 75.9404 156.816 76.0534 156.917 76.1668C158.885 78.379 161 80.7568 161 86.5407C161 89.7259 159.172 94.9379 153.693 96.675C152.524 97.0455 150.478 96.2043 152.231 95.2274C156.481 92.8597 156.776 90.7306 157.098 88.4063C157.131 88.1727 157.164 87.9371 157.201 87.6991C158.37 80.1707 145.509 74.3797 139.662 74.669C139.031 74.7003 138.266 74.725 137.426 74.7521C133.607 74.8753 128.239 75.0485 126.801 76.1168C126.216 76.5511 125.778 77.5646 126.216 78.4332C126.509 79.0125 126.801 79.5916 126.801 80.1705V84.5138C126.801 89.7257 118.793 96.0959 111.894 96.0959C111.017 96.0959 108.094 94.6483 108.094 92.9108V89.7257C108.094 87.9886 112.302 78.723 116.278 77.5646C117.156 77.3089 117.506 75.8275 116.571 74.6692C115.402 73.2215 114.233 69.7469 113.355 65.9824C113.158 65.135 112.771 64.5349 111.894 65.9824L104.294 79.3019C103.71 80.1707 103.709 80.4599 104.294 81.3287C104.879 82.1976 105.171 84.2245 105.171 85.3825V89.7257C105.171 95.2274 98.1562 101.308 91.7252 101.308H87.0484C85.8796 101.308 84.71 100.729 84.71 99.2809V97.5436C84.71 96.6765 85.5847 95.5204 86.46 94.3636L86.4638 94.3586L95.2328 83.6451C95.8174 82.9695 96.6947 81.6183 95.5255 80.4603C94.064 79.0128 92.6025 74.9588 92.0179 72.063C91.9477 71.7154 91.9062 71.3171 91.8671 70.9424V70.9423C91.7147 69.481 91.5999 68.3806 89.9714 72.063C85.4895 82.1973 76.2337 102.612 73.0185 102.612H69.8032C68.6344 102.612 66.8802 101.164 66.8802 99.137V93.7795C66.8802 92.0421 66.3177 90.8841 65.711 93.4899C64.8345 97.2543 61.6188 105.362 56.357 105.362C51.6807 105.362 48.1665 101.018 47.5881 92.0421C47.3455 88.2782 48.0056 83.3558 48.7573 80.7496C48.7671 80.7156 48.7781 80.6791 48.79 80.6404C48.7976 80.6155 48.8055 80.5898 48.8137 80.5634C49.0463 79.8122 49.4654 78.4583 47.5881 79.3019C45.4754 80.2512 42.8028 81.5575 39.9098 83.1268C41.604 86.0543 42.7215 89.2849 42.6194 92.6215C42.3538 101.304 38.8195 118.453 18.0659 119.839C13.9741 120.112 5.49705 119.839 5.49705 109.705C5.49705 105.941 6.95894 97.5438 14.5583 92.6213L31.8011 82.7118L31.5813 82.5334C30.9106 81.9891 30.1984 81.4112 29.4659 80.7496C26.4633 78.0377 23.0271 75.9338 19.5665 73.8148L19.5664 73.8147C11.5728 68.9203 3.44864 63.9458 0.23566 51.2153C-1.0066 46.2932 2.57348 36.4483 13.0968 26.0243C18.6505 20.523 45.2501 4.36746 56.6497 2.57082L56.9658 2.52095C63.5612 1.47989 78.2805 -0.843509 89.4973 3.14969C93.5641 4.59749 100.233 10.6779 101.189 15.8899C101.226 16.0914 101.267 16.2995 101.309 16.5153L101.309 16.5154C101.75 18.7803 102.356 21.8953 100.786 27.1825C97.8635 37.0273 85.0094 55.6684 53.434 55.8481C53.3312 55.8487 53.2276 55.8495 53.1234 55.8503C49.3712 55.8785 44.697 55.9137 37.65 47.1615ZM66.0033 67.72C62.4056 70.0364 54.7205 78.7809 56.3574 92.911C56.5587 94.6483 57.4404 97.2543 59.2804 93.7797C62.3471 87.9886 68.3417 74.9588 68.3417 70.0364C68.3417 68.4301 68.3417 66.2144 66.0033 67.72ZM91.7256 94.6483L97.2792 88.2782C98.1561 87.4095 98.5215 87.9886 98.1561 89.4364C97.7908 90.8841 96.4023 93.4322 92.8948 95.517C91.823 96.0097 90.0887 96.5258 91.7256 94.6483ZM113.94 89.1468C114.152 86.4259 117.156 82.4871 118.617 81.0394C119.853 79.6495 120.371 80.7498 120.371 81.908C120.371 84.514 117.55 88.2782 115.402 90.305C114.67 90.9958 113.873 90.0155 113.94 89.1468ZM35.0195 86.2514C30.6351 87.6992 16.6399 97.5439 15.7278 106.81C15.5568 108.547 16.6047 111.194 20.9892 110.574C23.3275 110.243 28.0043 108.619 31.5119 104.493C34.4349 101.055 38.5272 89.726 35.0195 86.2514Z" fill="url(#paint0_linear_35_225)"/>
</g>
<defs>
<linearGradient id="paint0_linear_35_225" x1="14.0303" y1="22.9038" x2="128.743" y2="106.163" gradientUnits="userSpaceOnUse">
<stop stop-color="#056945"/>
<stop offset="0.355271" stop-color="#01A66B"/>
<stop offset="0.717141" stop-color="#01A66B"/>
<stop offset="1" stop-color="#056945"/>
</linearGradient>
</defs>
</svg>
