<svg width="191" height="249" viewBox="0 0 191 249" fill="none" xmlns="http://www.w3.org/2000/svg">
<g id="logo-LF">
<path id="Vector 3" d="M11.5 140.31L12.413 2.83302C12.413 1 12.413 1 10.1304 1H3.73913C1.91296 0.999988 1.91293 0.999988 1.91302 2.83302L1 150.391C0.999974 152.683 1 152.683 3.73913 152.683H45.7391C47.5652 152.683 47.5652 152.683 47.5652 154.058V246.167C47.5652 248 47.5652 248 49.3913 248L55.7826 248C57.6087 248 57.6087 248 57.6087 246.167V154.058C57.6087 152.683 57.6087 152.683 59.4348 152.683H120.152C123.804 152.683 123.804 152.683 123.804 148.1C123.804 142.601 123.804 142.601 120.152 142.601H59.4348C57.6087 142.601 57.6087 142.601 57.6087 141.226V109.148C57.6087 107.774 57.6087 107.774 59.4348 107.774H185.891C190 107.774 190 107.774 190 102.275C190 97.692 190 97.692 185.891 97.692H50.3043C47.5652 97.692 47.5652 97.692 47.5652 99.9833V141.226C47.5652 142.601 47.5652 142.601 45.7391 142.601H13.7826C11.5 142.601 11.4999 142.601 11.5 140.31Z" fill="url(#paint0_linear_87_1339)" stroke="#056945"/>
</g>
<defs>
<linearGradient id="paint0_linear_87_1339" x1="19.7174" y1="0.541746" x2="163.671" y2="161.306" gradientUnits="userSpaceOnUse">
<stop stop-color="#056945"/>
<stop offset="0.186246" stop-color="#01A66B"/>
<stop offset="0.619464" stop-color="#01A66B"/>
<stop offset="1" stop-color="#056945"/>
</linearGradient>
</defs>
</svg>
